<svg xmlns="http://www.w3.org/2000/svg" xmlns:svg="http://www.w3.org/2000/svg" xmlns:xlink="http://www.w3.org/1999/xlink" id="svg7256" width="48" height="48" version="1.1"><defs id="defs7258"><linearGradient id="linearGradient7189"><stop id="stop7191" offset="0" stop-color="#fff" stop-opacity="1"/><stop id="stop7193" offset="1" stop-color="#fff" stop-opacity="0"/></linearGradient><linearGradient id="linearGradient7187" x1="33" x2="32.929" y1="20.089" y2="38" gradientUnits="userSpaceOnUse" xlink:href="#linearGradient7189"/><linearGradient id="linearGradient5769"><stop id="stop5771" offset="0" stop-color="#fff" stop-opacity="1"/><stop id="stop5773" offset="1" stop-color="#fff" stop-opacity="0"/></linearGradient><linearGradient id="linearGradient5775" x1="11.344" x2="11.283" y1="15.724" y2="9.095" gradientUnits="userSpaceOnUse" xlink:href="#linearGradient5769"/><linearGradient id="linearGradient8034"><stop id="stop8036" offset="0" stop-color="#eeeeec" stop-opacity="1"/><stop id="stop8038" offset="1" stop-color="#b0b0b0" stop-opacity="1"/></linearGradient><linearGradient id="linearGradient5779" x1="16.008" x2="117.838" y1="521.358" y2="333.099" gradientTransform="matrix(9.1409747e-2,0,0,-0.1020666,29.637922,77.872994)" gradientUnits="userSpaceOnUse" xlink:href="#linearGradient8034"/><linearGradient id="linearGradient5791"><stop id="stop5793" offset="0" stop-color="#000" stop-opacity="1"/><stop id="stop5795" offset="1" stop-color="#000" stop-opacity="0"/></linearGradient><radialGradient id="radialGradient5797" cx="11.314" cy="19.083" r="9.899" fx="11.314" fy="19.083" gradientTransform="matrix(1,0,0,0.2767857,0,13.801232)" gradientUnits="userSpaceOnUse" xlink:href="#linearGradient5791"/><linearGradient id="linearGradient3656"><stop id="stop3658" offset="0" stop-color="#fff" stop-opacity="1"/><stop id="stop3660" offset="1" stop-color="#fff" stop-opacity="0"/></linearGradient><linearGradient id="linearGradient5816" x1="-26.754" x2="-24.75" y1="11.566" y2="9.688" gradientUnits="userSpaceOnUse" xlink:href="#linearGradient3656"/><linearGradient id="linearGradient3520"><stop id="stop3522" offset="0" stop-color="#000" stop-opacity=".413"/><stop id="stop3524" offset="1" stop-color="#000" stop-opacity="0"/></linearGradient><linearGradient id="linearGradient5836" x1="-18.589" x2="-28.789" y1="11.053" y2="14.07" gradientTransform="matrix(0.9223058,0,0,0.9185751,-92.447368,61.3257)" gradientUnits="userSpaceOnUse" xlink:href="#linearGradient3520"/><linearGradient id="linearGradient3671"><stop id="stop3673" offset="0" stop-color="#fff" stop-opacity="1"/><stop id="stop3691" offset=".475" stop-color="#fff" stop-opacity="1"/><stop id="stop3675" offset="1" stop-color="#fff" stop-opacity="0"/></linearGradient><radialGradient id="radialGradient5839" cx="-26.305" cy="10.108" r="7.042" fx="-26.305" fy="10.108" gradientTransform="matrix(0.4073362,-0.2798276,0.7510293,1.0932492,-115.18484,51.56213)" gradientUnits="userSpaceOnUse" xlink:href="#linearGradient3671"/><linearGradient id="linearGradient6469"><stop id="stop6471" offset="0" stop-color="#000" stop-opacity="1"/><stop id="stop6473" offset="1" stop-color="#000" stop-opacity="0"/></linearGradient><linearGradient id="linearGradient6475" x1="58.282" x2="61.181" y1="70.752" y2="67.799" gradientTransform="translate(-180,0)" gradientUnits="userSpaceOnUse" xlink:href="#linearGradient6469"/><linearGradient id="linearGradient3741"><stop id="stop3743" offset="0" stop-color="#fff" stop-opacity="1"/><stop id="stop3745" offset="1" stop-color="#fff" stop-opacity="0"/></linearGradient><radialGradient id="radialGradient5810" cx="4" cy="5.3" r="17" fx="4" fy="5.3" gradientTransform="matrix(1.8860258,0,0,1.1764706,-3.5441033,-4.2352941)" gradientUnits="userSpaceOnUse" xlink:href="#linearGradient3741"/><linearGradient id="linearGradient3613"><stop id="stop3615" offset="0" stop-color="#888a85" stop-opacity="1"/><stop id="stop3617" offset="1" stop-color="#babdb6" stop-opacity="1"/></linearGradient><linearGradient id="linearGradient5845" x1="-47.5" x2="-62.75" y1="49.021" y2="-22.502" gradientTransform="translate(-90,60)" gradientUnits="userSpaceOnUse" xlink:href="#linearGradient3613"/><linearGradient id="linearGradient3683"><stop id="stop3685" offset="0" stop-color="#f6f6f5" stop-opacity="1"/><stop id="stop3689" offset="1" stop-color="#d3d7cf" stop-opacity="1"/></linearGradient><radialGradient id="radialGradient5843" cx="-30.25" cy="35.357" r="18" fx="-30.25" fy="35.357" gradientTransform="matrix(3.9957492,0,0,1.9350367,0.62141,28.832578)" gradientUnits="userSpaceOnUse" xlink:href="#linearGradient3683"/><linearGradient id="linearGradient5804" x1="25.058" x2="25.058" y1="47.028" y2="39.999" gradientUnits="userSpaceOnUse" xlink:href="#linearGradient3702"/><radialGradient id="radialGradient5802" cx="4.993" cy="43.5" r="2.5" fx="4.993" fy="43.5" gradientTransform="matrix(2.003784,0,0,1.4,-20.01187,-104.4)" gradientUnits="userSpaceOnUse" xlink:href="#linearGradient3688"/><radialGradient id="radialGradient5800" cx="4.993" cy="43.5" r="2.5" fx="4.993" fy="43.5" gradientTransform="matrix(2.003784,0,0,1.4,27.98813,-17.4)" gradientUnits="userSpaceOnUse" xlink:href="#linearGradient3688"/><linearGradient id="linearGradient3702"><stop id="stop3704" offset="0" stop-color="#000" stop-opacity="0"/><stop id="stop3710" offset=".5" stop-color="#000" stop-opacity="1"/><stop id="stop3706" offset="1" stop-color="#000" stop-opacity="0"/></linearGradient><linearGradient id="linearGradient5798" x1="25.058" x2="25.058" y1="47.028" y2="39.999" gradientUnits="userSpaceOnUse" xlink:href="#linearGradient3702"/><radialGradient id="radialGradient5796" cx="4.993" cy="43.5" r="2.5" fx="4.993" fy="43.5" gradientTransform="matrix(2.003784,0,0,1.4,-20.01187,-104.4)" gradientUnits="userSpaceOnUse" xlink:href="#linearGradient3688"/><linearGradient id="linearGradient3688"><stop id="stop3690" offset="0" stop-color="#000" stop-opacity="1"/><stop id="stop3692" offset="1" stop-color="#000" stop-opacity="0"/></linearGradient><radialGradient id="radialGradient5794" cx="4.993" cy="43.5" r="2.5" fx="4.993" fy="43.5" gradientTransform="matrix(2.003784,0,0,1.4,27.98813,-17.4)" gradientUnits="userSpaceOnUse" xlink:href="#linearGradient3688"/><radialGradient id="radialGradient12825" cx="11.314" cy="19.083" r="9.899" fx="11.314" fy="19.083" gradientTransform="matrix(1,0,0,0.2767857,0,13.801232)" gradientUnits="userSpaceOnUse" xlink:href="#linearGradient5791"/><linearGradient id="linearGradient12827" x1="16.008" x2="117.838" y1="521.358" y2="333.099" gradientTransform="matrix(0.09140975,0,0,-0.1020666,29.637922,77.872994)" gradientUnits="userSpaceOnUse" xlink:href="#linearGradient8034"/><linearGradient id="linearGradient12829" x1="11.344" x2="11.283" y1="15.724" y2="9.095" gradientUnits="userSpaceOnUse" xlink:href="#linearGradient5769"/><linearGradient id="linearGradient12831" x1="33" x2="32.929" y1="20.089" y2="38" gradientUnits="userSpaceOnUse" xlink:href="#linearGradient7189"/></defs><metadata id="metadata7261"/><g id="layer1"><g id="g12819" transform="matrix(1.6,0,0,1.6,-28.800001,-28.8)"><path id="path5789" fill="url(#radialGradient12825)" fill-opacity="1" fill-rule="nonzero" stroke="none" stroke-width="1" d="m 21.213203,19.083185 c 0,1.513282 -4.432155,2.740039 -9.899495,2.740039 -5.4673399,0 -9.8994948,-1.226757 -9.8994948,-2.740039 0,-1.513281 4.4321549,-2.740039 9.8994948,-2.740039 5.46734,0 9.899495,1.226758 9.899495,2.740039 z" display="block" enable-background="accumulate" opacity=".4" overflow="visible" transform="matrix(1.5152288,0,0,1.4598333,15.857145,16.141731)" visibility="visible" style="marker:none"/><path id="path5665" fill="url(#linearGradient12827)" fill-opacity="1" fill-rule="nonzero" stroke="#888a85" stroke-dasharray="none" stroke-dashoffset="0" stroke-linecap="butt" stroke-linejoin="miter" stroke-miterlimit="10" stroke-opacity="1" stroke-width="1" d="m 32.74108,18.500361 c -1.464899,0.02409 -0.768788,2.840805 -2.200839,3.15022 -1.432052,0.309414 -1.978663,-2.524765 -3.322835,-1.941917 -1.344172,0.582849 0.384717,2.920488 -0.81992,3.754372 -1.204636,0.833884 -2.778719,-1.613872 -3.797525,-0.560998 -1.018807,1.052874 1.44113,2.566123 0.647305,3.797525 -0.793825,1.231402 -3.216034,-0.370074 -3.754372,0.992535 -0.538337,1.362609 2.333539,1.795075 2.071378,3.236526 -0.262161,1.441451 -3.088002,0.865401 -3.063913,2.3303 0.02409,1.464898 2.840806,0.768786 3.15022,2.200838 0.309414,1.432052 -2.524764,1.978663 -1.941916,3.322835 0.582848,1.344171 2.920488,-0.384716 3.754372,0.819921 0.833883,1.204635 -1.613872,2.778718 -0.560999,3.797525 1.052874,1.018805 2.566123,-1.441133 3.797526,-0.647306 1.231402,0.793825 -0.370074,3.216035 0.992536,3.754371 1.362608,0.538337 1.795075,-2.33354 3.236526,-2.071377 1.441451,0.262162 0.8654,3.088002 2.330299,3.063911 1.464899,-0.02409 0.768788,-2.840803 2.200839,-3.150219 1.432052,-0.309414 1.978665,2.524766 3.322835,1.941917 1.344171,-0.582849 -0.384715,-2.920489 0.819921,-3.754371 1.204635,-0.833884 2.778719,1.613872 3.797525,0.560997 1.018806,-1.052874 -1.44113,-2.566123 -0.647306,-3.797525 0.793825,-1.231402 3.216034,0.370074 3.754371,-0.992536 0.538338,-1.362608 -2.333538,-1.795075 -2.071377,-3.236526 0.262162,-1.441451 3.088001,-0.865401 3.063913,-2.330299 -0.02409,-1.464899 -2.840806,-0.768787 -3.15022,-2.200838 -0.309415,-1.432052 2.524765,-1.978664 1.941916,-3.322835 -0.582848,-1.344171 -2.920486,0.384715 -3.754371,-0.819919 -0.833884,-1.204637 1.61387,-2.77872 0.560998,-3.797526 -1.052875,-1.018806 -2.566122,1.44113 -3.797526,0.647305 -1.231402,-0.793824 0.370075,-3.216034 -0.992535,-3.754371 -1.362609,-0.538337 -1.795076,2.333539 -3.236527,2.071377 -1.441451,-0.262161 -0.865401,-3.088001 -2.330299,-3.063912 z M 33.000001,25.5 c 4.192468,0 7.500001,3.307534 7.500001,7.500002 0,4.192467 -3.307533,7.499998 -7.500001,7.499998 -4.192467,0 -7.499999,-3.307531 -7.499999,-7.499998 0,-4.192468 3.307532,-7.500002 7.499999,-7.500002 z" display="block" enable-background="accumulate" overflow="visible" visibility="visible" style="marker:none"/><path id="path5767" fill="none" stroke="url(#linearGradient12829)" stroke-dasharray="none" stroke-dashoffset="0" stroke-linecap="butt" stroke-linejoin="miter" stroke-miterlimit="10" stroke-opacity="1" stroke-width=".769" d="m 17.324116,10.863069 c 0,3.612349 -2.928388,6.540737 -6.540737,6.540737 -3.61235,0 -6.540738,-2.928388 -6.540738,-6.540737 0,-3.6123501 2.928388,-6.540738 6.540738,-6.540738 3.612349,0 6.540737,2.9283879 6.540737,6.540738 z" display="block" enable-background="accumulate" overflow="visible" transform="matrix(1.2995607,0,0,1.2995607,18.986347,18.882783)" visibility="visible" style="marker:none"/><path id="path5777" fill="none" stroke="url(#linearGradient12831)" stroke-dasharray="none" stroke-dashoffset="0" stroke-linecap="butt" stroke-linejoin="miter" stroke-miterlimit="10" stroke-opacity="1" stroke-width="1" d="m 32.78125,19.875 c -0.04249,0.126943 -0.07759,0.191002 -0.125,0.375 -0.09482,0.367995 -0.190479,0.806977 -0.4375,1.28125 -0.247021,0.474273 -0.769619,1.005193 -1.46875,1.15625 -0.696414,0.15047 -1.391935,-0.109465 -1.8125,-0.4375 -0.420565,-0.328035 -0.669436,-0.706672 -0.90625,-1 -0.108169,-0.133983 -0.164431,-0.156922 -0.25,-0.25 0.01098,0.12689 0.0052,0.171984 0.03125,0.34375 0.05688,0.374528 0.136458,0.810224 0.09375,1.34375 -0.04271,0.533526 -0.317708,1.248845 -0.90625,1.65625 -0.589684,0.408197 -1.328673,0.397764 -1.84375,0.25 -0.515077,-0.147764 -0.917417,-0.377061 -1.25,-0.5625 -0.151174,-0.08429 -0.197119,-0.101184 -0.3125,-0.15625 0.05728,0.11255 0.06883,0.164856 0.15625,0.3125 0.192317,0.324816 0.433402,0.709563 0.59375,1.21875 0.160348,0.509187 0.167746,1.244208 -0.21875,1.84375 -0.387126,0.60052 -1.064054,0.899973 -1.59375,0.96875 -0.529696,0.06878 -0.964266,0.0053 -1.34375,-0.03125 -0.212778,-0.02049 -0.296352,-0.02918 -0.4375,-0.03125 0.103189,0.09088 0.1484,0.158114 0.3125,0.28125 0.303144,0.22747 0.687635,0.496918 1.03125,0.90625 0.343615,0.409332 0.627864,1.078207 0.5,1.78125 -0.127617,0.701684 -0.628827,1.237787 -1.09375,1.5 -0.464923,0.262213 -0.918983,0.362988 -1.28125,0.46875 -0.174108,0.05083 -0.221822,0.0802 -0.34375,0.125 0.126943,0.04249 0.191002,0.07759 0.375,0.125 0.367995,0.09482 0.806977,0.190479 1.28125,0.4375 0.474273,0.247021 1.005193,0.769619 1.15625,1.46875 0.15047,0.696414 -0.109465,1.391935 -0.4375,1.8125 -0.328035,0.420565 -0.706672,0.669436 -1,0.90625 -0.133983,0.108169 -0.156922,0.164431 -0.25,0.25 0.12689,-0.01098 0.171984,-0.0052 0.34375,-0.03125 0.374528,-0.05688 0.810224,-0.136458 1.34375,-0.09375 0.533526,0.04271 1.248845,0.317708 1.65625,0.90625 0.408196,0.589684 0.397764,1.328673 0.25,1.84375 -0.147764,0.515077 -0.377061,0.917417 -0.5625,1.25 -0.08429,0.151174 -0.101184,0.197119 -0.15625,0.3125 0.11255,-0.05728 0.164856,-0.06883 0.3125,-0.15625 0.324816,-0.192317 0.709562,-0.433402 1.21875,-0.59375 0.509188,-0.160348 1.244208,-0.167746 1.84375,0.21875 0.60052,0.387126 0.899974,1.064054 0.96875,1.59375 0.06878,0.529696 0.0053,0.964266 -0.03125,1.34375 -0.02049,0.212778 -0.02918,0.296352 -0.03125,0.4375 0.09088,-0.103189 0.158114,-0.148399 0.28125,-0.3125 0.22747,-0.303144 0.496918,-0.687635 0.90625,-1.03125 0.409332,-0.343615 1.078207,-0.627865 1.78125,-0.5 0.701684,0.127618 1.237787,0.628827 1.5,1.09375 0.262213,0.464923 0.362988,0.918983 0.46875,1.28125 0.05083,0.174108 0.0802,0.221822 0.125,0.34375 0.04249,-0.126943 0.07759,-0.191002 0.125,-0.375 0.09482,-0.367995 0.19048,-0.806977 0.4375,-1.28125 0.24702,-0.474273 0.769619,-1.005192 1.46875,-1.15625 0.696414,-0.15047 1.391935,0.109465 1.8125,0.4375 0.420565,0.328035 0.669436,0.706672 0.90625,1 0.10817,0.133983 0.164431,0.156922 0.25,0.25 -0.01098,-0.12689 -0.0052,-0.171984 -0.03125,-0.34375 -0.05688,-0.374528 -0.136458,-0.810225 -0.09375,-1.34375 0.04271,-0.533525 0.317708,-1.248845 0.90625,-1.65625 0.589684,-0.408197 1.328673,-0.397764 1.84375,-0.25 0.515077,0.147764 0.917417,0.377061 1.25,0.5625 0.151174,0.08429 0.197119,0.101184 0.3125,0.15625 C 42.34897,42.01245 42.337417,41.960144 42.25,41.8125 42.057683,41.487684 41.816598,41.102937 41.65625,40.59375 41.495902,40.084563 41.488505,39.349543 41.875,38.75 c 0.387126,-0.60052 1.064054,-0.899973 1.59375,-0.96875 0.529696,-0.06878 0.964266,-0.0053 1.34375,0.03125 0.212778,0.02049 0.296352,0.02918 0.4375,0.03125 -0.103189,-0.09088 -0.148399,-0.158114 -0.3125,-0.28125 -0.303144,-0.22747 -0.687635,-0.496918 -1.03125,-0.90625 -0.343615,-0.409332 -0.627864,-1.078207 -0.5,-1.78125 0.127618,-0.701684 0.628828,-1.237787 1.09375,-1.5 0.464922,-0.262213 0.918983,-0.362988 1.28125,-0.46875 0.174108,-0.05083 0.221822,-0.0802 0.34375,-0.125 -0.126943,-0.04249 -0.191002,-0.07759 -0.375,-0.125 -0.367995,-0.09482 -0.806977,-0.190479 -1.28125,-0.4375 -0.474273,-0.247021 -1.005193,-0.769619 -1.15625,-1.46875 -0.15047,-0.696414 0.109465,-1.391935 0.4375,-1.8125 0.328035,-0.420565 0.706672,-0.669436 1,-0.90625 0.133983,-0.108169 0.156922,-0.164431 0.25,-0.25 -0.12689,0.01098 -0.171984,0.0052 -0.34375,0.03125 -0.374528,0.05688 -0.810225,0.136457 -1.34375,0.09375 C 42.778975,27.863543 42.063656,27.588541 41.65625,27 c -0.408196,-0.589684 -0.397764,-1.328673 -0.25,-1.84375 0.147764,-0.515077 0.377061,-0.917417 0.5625,-1.25 0.08429,-0.151174 0.101184,-0.197119 0.15625,-0.3125 -0.11255,0.05728 -0.164856,0.06883 -0.3125,0.15625 -0.324816,0.192317 -0.709563,0.433402 -1.21875,0.59375 -0.509187,0.160348 -1.244207,0.167745 -1.84375,-0.21875 -0.600521,-0.387126 -0.899973,-1.064054 -0.96875,-1.59375 -0.06878,-0.529696 -0.0053,-0.964266 0.03125,-1.34375 0.02049,-0.212778 0.02918,-0.296352 0.03125,-0.4375 -0.09088,0.103189 -0.158114,0.148399 -0.28125,0.3125 -0.22747,0.303144 -0.496918,0.687635 -0.90625,1.03125 -0.409332,0.343615 -1.078207,0.627865 -1.78125,0.5 -0.701684,-0.127617 -1.237787,-0.628827 -1.5,-1.09375 -0.262213,-0.464923 -0.362988,-0.918983 -0.46875,-1.28125 -0.05083,-0.174108 -0.0802,-0.221822 -0.125,-0.34375 z M 33,24.4375 c 4.74841,0 8.5625,3.81409 8.5625,8.5625 0,4.748409 -3.81409,8.5625 -8.5625,8.5625 -4.748409,0 -8.5625,-3.814091 -8.5625,-8.5625 0,-4.74841 3.814091,-8.5625 8.5625,-8.5625 z" display="block" enable-background="accumulate" overflow="visible" visibility="visible" xlink:href="#path5665" style="marker:none"/></g></g></svg>